<svg width="667" height="667" viewBox="0 0 667 667" fill="none" xmlns="http://www.w3.org/2000/svg">
<path d="M459.536 666.672H356.312V666.667H459.536V666.672ZM617.646 0C630.646 0 643.116 5.16461 652.31 14.3574C661.503 23.5501 666.667 36.0186 666.667 49.0195V617.646C666.667 630.646 661.503 643.116 652.31 652.31C643.116 661.503 630.646 666.667 617.646 666.667H459.536V410.646H545.627L558.516 310.739H459.534V246.953C459.534 218.028 467.57 198.316 509.071 198.316L562 198.292V108.937C552.846 107.721 521.424 105 484.873 105C408.558 105 356.312 151.558 356.312 237.062V310.739H270V410.646H356.312V666.667H49.0195C36.0186 666.667 23.5501 661.503 14.3574 652.31C5.16461 643.116 0 630.646 0 617.646V49.0195C3.63695e-05 36.0186 5.16445 23.5501 14.3574 14.3574C23.5501 5.16445 36.0186 3.63704e-05 49.0195 0H617.646Z" fill="black"/>
</svg>
