<svg width="20" height="20" viewBox="0 0 20 20" fill="none" xmlns="http://www.w3.org/2000/svg">
<path d="M1 0C0.447715 0 0 0.447715 0 1V19C0 19.5523 0.447715 20 1 20H19C19.5523 20 20 19.5523 20 19V16C20 15.4477 19.5523 15 19 15H18.5C17.9477 15 17.5 15.4477 17.5 16V16.5C17.5 17.0523 17.0523 17.5 16.5 17.5H3.5C2.94772 17.5 2.5 17.0523 2.5 16.5V3.5C2.5 2.94772 2.94772 2.5 3.5 2.5H4C4.55228 2.5 5 2.05228 5 1.5V1C5 0.447715 4.55228 0 4 0H1ZM12.4142 0C11.5233 0 11.0771 1.07714 11.7071 1.70711L13.0429 3.04289C13.4334 3.43342 13.4334 4.06658 13.0429 4.45711L8.20711 9.29289C7.81658 9.68342 7.81658 10.3166 8.20711 10.7071L9.29289 11.7929C9.68342 12.1834 10.3166 12.1834 10.7071 11.7929L15.5429 6.95711C15.9334 6.56658 16.5666 6.56658 16.9571 6.95711L18.2929 8.29289C18.9229 8.92286 20 8.47669 20 7.58579V1C20 0.447715 19.5523 0 19 0H12.4142Z" fill="#989898"/>
</svg>
