<svg width="667" height="667" viewBox="0 0 667 667" fill="none" xmlns="http://www.w3.org/2000/svg">
<path d="M617.646 0C630.646 0 643.116 5.16461 652.31 14.3574C661.503 23.5501 666.667 36.0186 666.667 49.0195V617.646C666.667 630.646 661.503 643.116 652.31 652.31C643.116 661.503 630.646 666.667 617.646 666.667H49.0195C36.0186 666.667 23.5501 661.503 14.3574 652.31C5.16461 643.116 0 630.646 0 617.646V49.0195C3.63695e-05 36.0186 5.16445 23.5501 14.3574 14.3574C23.5501 5.16445 36.0186 3.63704e-05 49.0195 0H617.646ZM291.055 60.6367C239.115 60.6367 203.806 60.6835 176.515 62.9131C149.931 65.0851 136.336 69.0224 126.853 73.8545C104.034 85.4815 85.4815 104.034 73.8545 126.853C69.0224 136.336 65.0851 149.931 62.9131 176.515C60.6835 203.806 60.6367 239.115 60.6367 291.055V375.945C60.6367 427.886 60.6835 463.192 62.9131 490.484C65.0851 517.07 69.0224 530.665 73.8545 540.148C85.4815 562.966 104.034 581.518 126.853 593.146C136.336 597.978 149.931 601.916 176.515 604.087C203.806 606.315 239.115 606.364 291.055 606.364H375.945C427.886 606.364 463.192 606.315 490.484 604.087C517.07 601.916 530.665 597.978 540.148 593.146C562.966 581.518 581.518 562.966 593.145 540.148C597.977 530.665 601.916 517.07 604.087 490.484C606.315 463.192 606.363 427.886 606.363 375.945V291.055C606.363 239.115 606.315 203.806 604.087 176.515C601.916 149.931 597.977 136.336 593.145 126.853C581.518 104.034 562.966 85.4815 540.148 73.8545C530.665 69.0224 517.07 65.0851 490.484 62.9131C463.192 60.6835 427.886 60.6367 375.945 60.6367H291.055Z" fill="black"/>
<path fill-rule="evenodd" clip-rule="evenodd" d="M333.5 500.25C425.593 500.25 500.25 425.593 500.25 333.5C500.25 241.406 425.593 166.75 333.5 166.75C241.406 166.75 166.75 241.406 166.75 333.5C166.75 425.593 241.406 500.25 333.5 500.25ZM333.5 444.667C394.895 444.667 444.667 394.895 444.667 333.5C444.667 272.104 394.895 222.333 333.5 222.333C272.104 222.333 222.333 272.104 222.333 333.5C222.333 394.895 272.104 444.667 333.5 444.667Z" fill="black"/>
<path d="M500.25 138.958C484.901 138.958 472.458 151.401 472.458 166.75C472.458 182.099 484.901 194.542 500.25 194.542C515.599 194.542 528.042 182.099 528.042 166.75C528.042 151.401 515.599 138.958 500.25 138.958Z" fill="black"/>
</svg>
