<svg width="667" height="667" viewBox="0 0 667 667" fill="none" xmlns="http://www.w3.org/2000/svg">
<path d="M666.667 49.0197V617.647C666.667 630.647 661.503 643.117 652.31 652.31C643.117 661.503 630.647 666.667 617.647 666.667H49.0197C36.0187 666.667 23.5503 661.503 14.3577 652.31C5.16467 643.117 0 630.647 0 617.647V49.0197C0 36.0187 5.16467 23.5503 14.3577 14.3577C23.5503 5.16467 36.0187 0 49.0197 0H617.647C630.647 0 643.117 5.16467 652.31 14.3577C661.503 23.5503 666.667 36.0187 666.667 49.0197ZM196.078 254.902H98.0393V568.627H196.078V254.902ZM204.902 147.059C204.954 139.643 203.544 132.29 200.754 125.418C197.964 118.547 193.847 112.293 188.64 107.013C183.432 101.733 177.236 97.5297 170.404 94.6443C163.573 91.759 156.239 90.2473 148.824 90.196H147.059C131.978 90.196 117.515 96.187 106.851 106.851C96.187 117.515 90.196 131.978 90.196 147.059C90.196 162.14 96.187 176.603 106.851 187.267C117.515 197.931 131.978 203.922 147.059 203.922C154.475 204.104 161.855 202.823 168.776 200.153C175.697 197.482 182.025 193.474 187.396 188.357C192.768 183.241 197.079 177.115 200.083 170.332C203.086 163.549 204.724 156.24 204.902 148.824V147.059ZM568.627 378.04C568.627 283.727 508.627 247.059 449.02 247.059C429.503 246.082 410.07 250.238 392.663 259.115C375.253 267.99 360.477 281.277 349.803 297.647H347.06V254.902H254.902V568.627H352.94V401.763C351.523 384.677 356.907 367.717 367.92 354.573C378.937 341.43 394.69 333.163 411.763 331.57H415.49C446.667 331.57 469.803 351.177 469.803 400.587V568.627H567.843L568.627 378.04Z" fill="black"/>
</svg>
